# xmcd CD database file
#
# Track frame offsets:
#	182
#	12630
#	34145
#	48275
#	58600
#	73050
#	84140
#	96455
#	109855
#	131517
#	140820
#	155500
#
# Disc length: 2257 seconds
#
# Revision: 0
# Processed by: cddbd v1.5.2PL0 Copyright (c) Steve Scherf et al.
# Submitted via: CDex 2.09
#
DISCID=a808cf0c
DTITLE=Andy Martin - Honky Tonk Motel
DYEAR=1996
DGENRE=Country
TTITLE0=Jt`s your Ponytail
TTITLE1=You make me feel so young again
TTITLE2=J wasan`t born to live in this City
TTITLE3=Suzanne
TTITLE4=There`ll always be a Honky Tonk Somewehre
TTITLE5=Highway Cowboy
TTITLE6=Workman
TTITLE7=Just like a fool
TTITLE8=Miracles
TTITLE9=Guitar Man
TTITLE10=Tonight the bottle let me down
TTITLE11=Song on my Radio
EXTD=YEAR: 1996
EXTT0=
EXTT1=
EXTT2=
EXTT3=
EXTT4=
EXTT5=
EXTT6=
EXTT7=
EXTT8=
EXTT9=
EXTT10=
EXTT11=
PLAYORDER=
